<svg width="324" height="324" viewBox="0 0 324 324" fill="none" xmlns="http://www.w3.org/2000/svg">
<style>
  .accent-color { fill: #E9815C; }
  .dark-color { fill: #232323; }

  @media (prefers-color-scheme: dark) {
    .accent-color { fill: #FF9A75; }
    .dark-color { fill: #E8E8E8; }
  }
</style>
<g clip-path="url(#clip0_53_51)">
<path d="M237.303 75.689C283.568 74.0693 322.38 110.273 323.978 156.539C325.575 202.804 289.353 241.6 243.085 243.175C196.851 244.747 158.089 208.556 156.492 162.322C154.896 116.088 191.07 77.3078 237.303 75.689Z" class="accent-color"/>
<path d="M157.725 0.362922C163.123 0.252797 168.524 0.351372 173.914 0.658447C218.461 3.37327 259.858 26.1296 287.805 60.6506C289.753 63.0571 294.703 68.6944 294.253 71.9729C293.548 77.1079 286.805 73.5719 284.158 72.2954C235.63 48.8896 179.463 61.7091 137.123 92.0504C121.028 103.525 105.435 119.728 93.3788 135.288C90.6133 138.803 88.1703 142.583 85.6023 146.239C83.848 148.736 81.2543 150.549 78.6785 147.78C75.6688 144.544 73.2783 140.141 71.017 136.319C60.2533 118.434 51.8388 99.2369 45.9815 79.2014C44.107 72.7361 42.464 66.8869 42.2125 60.1109C41.9915 54.1524 43.574 51.5324 47.6343 47.2244C67.4435 26.2051 95.616 10.8746 123.758 4.45065C134.915 1.95465 146.294 0.585222 157.725 0.362922Z" class="dark-color"/>
<path d="M290.645 243.532C296.225 243.11 296.057 248.685 293.795 252.132C290.282 257.487 286.487 262.602 282.325 267.475C260.755 292.497 232.005 310.275 199.983 318.395C159.122 328.952 115.73 322.605 79.6059 300.785C71.3034 295.722 62.9866 289.792 55.8584 283.185C59.2959 283.595 65.4714 283.65 69.1054 283.697C100.308 284.107 130.58 278.12 159.679 267.132C164.476 265.33 169.213 263.372 173.884 261.265C191.09 253.397 185.718 254.175 204.156 257.255C207.404 257.79 210.671 258.205 213.95 258.497C236.512 260.465 258.77 257.805 279.557 248.67C283.007 247.152 286.782 244.757 290.332 243.63L290.645 243.532Z" class="dark-color"/>
<path d="M29.6627 69.1211C31.2362 69.4703 32.0062 72.0416 32.3725 73.4236C39.0245 98.5283 49.0832 122.567 62.6562 144.729C65.5652 149.479 68.5057 154.499 71.0212 159.497C71.882 161.182 71.7035 163.391 70.8147 165.061C66.4587 173.248 61.5172 181.251 57.268 189.5C51.4907 200.688 46.1422 212.092 41.2342 223.687C38.5172 230.28 36.076 237.15 33.63 243.86C32.8185 246.465 31.3815 250.58 30.268 252.958C25.8155 248.393 20.8622 239.488 17.948 233.81C4.46744 208.144 -1.63671 179.243 0.313315 150.316C2.19044 125.347 9.81124 101.149 22.5812 79.6098C24.131 76.9646 27.6057 70.9176 29.6627 69.1211Z" class="dark-color"/>
<path d="M81.0262 176.039C82.5235 175.947 83.6427 175.913 84.7252 177.148C87.1752 179.97 89.2352 183.116 91.5742 186.037C94.8275 190.099 98.2845 194.051 101.824 197.87C112.256 209.049 123.875 219.059 136.475 227.722C144.174 232.99 152.214 237.74 160.542 241.942C163.136 243.227 169.867 245.782 171.252 247.825C171.524 250.207 166.128 252.145 164.248 252.947C152.046 258.152 138.634 263.467 125.627 266.13C104.183 271.827 81.9532 273.437 60.0465 271.767C38.8357 270.152 38.471 263.81 45.054 245.42C46.9082 240.24 48.892 234.865 51.027 229.742C57.3325 214.573 64.7335 199.883 73.171 185.788C75.1293 182.536 77.4792 177.503 81.0262 176.039Z" class="dark-color"/>
</g>
<defs>
<clipPath id="clip0_53_51">
<rect width="324" height="324" fill="white"/>
</clipPath>
</defs>
</svg>
