<svg width="400" height="400" viewBox="0 0 400 400" fill="none" xmlns="http://www.w3.org/2000/svg">
<style>
.primary { fill: #1a1a1a; }
@media (prefers-color-scheme: dark) {
    .primary { fill: #f5f5f5; }
}
</style>
<path d="M228.385 222.415C250.616 145.612 242.172 71.9316 207.213 0C210.731 1.13948 212.649 3.00796 214.631 4.62132C267.014 47.2576 309.653 97.8334 339.481 158.715C353.476 187.279 363.999 217.091 369.414 248.524C372.193 264.651 373.416 280.959 373.486 297.338C373.491 298.479 373.602 299.656 372.77 301.065C367.881 299.927 362.956 298.676 357.986 297.641C336.229 293.107 314.23 293.323 292.196 294.455C269.016 295.646 246.096 298.966 223.334 303.339C211.337 305.643 199.338 308.033 187.555 311.339C186.689 311.581 185.824 311.913 184.415 310.93C204.402 284.216 218.572 254.551 228.385 222.415Z" class="primary"/>
<path d="M267.237 319.828C285.781 317.446 304.077 317.158 322.371 317.569C336.409 317.884 350.398 319.156 364.173 322.12C365.659 322.44 367.112 322.918 368.504 323.301C369.14 325.802 367.886 327.613 367.115 329.432C355.647 356.514 338.743 379.575 316.022 398.333C314.215 399.826 312.967 400.498 310.75 398.774C295.922 387.248 278.833 380.546 260.804 376.049C244.504 371.984 227.836 370.826 211.122 369.654C191.853 368.303 172.722 369.83 153.652 371.624C130.715 373.782 108.039 377.967 85.5798 383.244C66.7527 387.667 48.2575 393.197 29.8968 399.222C28.7262 399.606 27.5912 400.484 26 399.655C27.0462 397.761 29.0914 397.418 30.6528 396.473C60.1336 378.643 91.7328 365.461 124.065 353.871C147.613 345.43 171.56 338.308 195.871 332.478C217.774 327.226 239.855 322.817 262.305 320.535C263.84 320.379 265.36 320.076 267.237 319.828Z" class="primary"/>
<path d="M83.0839 318.501C130.405 255.944 170.183 189.329 199.611 116.328C201.286 117.484 201.475 118.71 201.812 119.907C204.402 129.091 206.033 138.471 207.066 147.928C208.479 160.868 209.054 173.832 208.058 186.876C206.198 211.218 200.56 234.623 191.533 257.256C182.524 279.844 169.922 300.264 154.381 318.921C153.238 320.294 151.883 321.06 150.252 321.564C117.728 331.608 85.7542 343.116 54.866 357.504C54.0947 357.863 53.3346 358.579 52.0126 357.604C62.4882 344.756 73.1021 332.049 83.0839 318.501Z" class="primary"/>
</svg>
